<svg xmlns="http://www.w3.org/2000/svg" xmlns:xlink="http://www.w3.org/1999/xlink" version="1.1" x="0px" y="0px" viewBox="0 0 48 60" style="enable-background:new 0 0 48 48;" xml:space="preserve"><g><path d="M19.5,32.5v5H16h-2c-0.13,0-0.26,0.05-0.35,0.15l-2,2c-0.14,0.14-0.19,0.36-0.11,0.54c0.08,0.19,0.26,0.31,0.46,0.31h24   c0.2,0,0.38-0.12,0.46-0.31c0.08-0.19,0.03-0.4-0.11-0.54l-2-2c-0.09-0.09-0.22-0.15-0.35-0.15h-2h-3.5v-5H43   c0.83,0,1.5-0.67,1.5-1.5V9c0-0.83-0.67-1.5-1.5-1.5H5C4.17,7.5,3.5,8.17,3.5,9v22c0,0.83,0.67,1.5,1.5,1.5H19.5z M32,38.5h1.79   l1,1H13.21l1-1H16h4h8H32z M20.5,37.5v-5h7v5H20.5z M4.5,9c0-0.28,0.22-0.5,0.5-0.5h38c0.28,0,0.5,0.22,0.5,0.5v18.5h-39V9z    M4.5,31v-2.5h39V31c0,0.28-0.22,0.5-0.5,0.5H28h-8H5C4.72,31.5,4.5,31.28,4.5,31z"/><path d="M22.5,30.5h3c0.28,0,0.5-0.22,0.5-0.5s-0.22-0.5-0.5-0.5h-3c-0.28,0-0.5,0.22-0.5,0.5S22.22,30.5,22.5,30.5z"/><path d="M25.41,14.26c-0.2-0.2-0.51-0.2-0.71,0l-4.95,4.95c-0.2,0.2-0.2,0.51,0,0.71c0.1,0.1,0.23,0.15,0.35,0.15   s0.26-0.05,0.35-0.15l4.95-4.95C25.61,14.77,25.61,14.45,25.41,14.26z"/><path d="M28.42,14.87l-7.78,7.78c-0.2,0.2-0.2,0.51,0,0.71c0.1,0.1,0.23,0.15,0.35,0.15s0.26-0.05,0.35-0.15l7.78-7.78   c0.2-0.2,0.2-0.51,0-0.71S28.62,14.67,28.42,14.87z"/></g><text x="0" y="63" fill="#000000" font-size="5px" font-weight="bold" font-family="'Helvetica Neue', Helvetica, Arial-Unicode, Arial, Sans-serif">Created by thirddesign</text><text x="0" y="68" fill="#000000" font-size="5px" font-weight="bold" font-family="'Helvetica Neue', Helvetica, Arial-Unicode, Arial, Sans-serif">from the Noun Project</text></svg>